<svg width="24" stroke-width="1.5" xmlns="http://www.w3.org/2000/svg" height="24" id="screenshot-ccf8e704-3eb8-80ed-8005-29258d75aaac" viewBox="0 0 24 24" xmlns:xlink="http://www.w3.org/1999/xlink" fill="none" version="1.1"><g id="shape-ccf8e704-3eb8-80ed-8005-29258d75aaac"><g class="frame-container-wrapper"><g class="frame-container-blur"><g class="frame-container-shadows"><g fill="none"><g class="fills" id="fills-ccf8e704-3eb8-80ed-8005-29258d75aaac"><rect rx="0" ry="0" x="0" y="0" width="24" height="24" transform="matrix(1.000000, 0.000000, 0.000000, 1.000000, 0.000000, 0.000000)" class="frame-background"/></g><g class="frame-children"><g id="shape-ccf8e704-3eb8-80ed-8005-292580dc96c9" width="1em" height="1em" rx="0" ry="0" style="fill: rgb(0, 0, 0);"><g id="shape-ccf8e704-3eb8-80ed-8005-292580dd384a" style="display: none;"><g class="fills" id="fills-ccf8e704-3eb8-80ed-8005-292580dd384a"><rect width="24" height="24" x="0" transform="matrix(1.000000, 0.000000, 0.000000, 1.000000, 0.000000, 0.000000)" style="fill: none;" ry="0" fill="none" rx="0" y="0"/></g></g><g id="shape-ccf8e704-3eb8-80ed-8005-292580ddd9b4"><g class="fills" id="fills-ccf8e704-3eb8-80ed-8005-292580ddd9b4"><path d="M12.000,2.000C9.239,2.000,7.000,4.239,7.000,7.000C7.000,9.761,9.239,12.000,12.000,12.000C14.761,12.000,17.000,9.761,17.000,7.000C17.000,4.239,14.761,2.000,12.000,2.000ZM12.000,10.000C10.343,10.000,9.000,8.657,9.000,7.000C9.000,5.343,10.343,4.000,12.000,4.000C13.657,4.000,15.000,5.343,15.000,7.000C15.000,8.657,13.657,10.000,12.000,10.000ZM21.000,21.000L21.000,20.000C21.000,16.134,17.866,13.000,14.000,13.000L10.000,13.000C6.134,13.000,3.000,16.134,3.000,20.000L3.000,21.000L5.000,21.000L5.000,20.000C5.000,17.239,7.239,15.000,10.000,15.000L14.000,15.000C16.761,15.000,19.000,17.239,19.000,20.000L19.000,21.000Z" style="fill: rgb(255, 255, 255);"/></g></g></g></g></g></g></g></g></g></svg>